<?xml version="1.0" encoding="UTF-8"?>
<!DOCTYPE svg PUBLIC "-//W3C//DTD SVG 1.1//EN" "http://www.w3.org/Graphics/SVG/1.1/DTD/svg11.dtd">
<svg version="1.1" xmlns="http://www.w3.org/2000/svg" xmlns:xlink="http://www.w3.org/1999/xlink" x="0" y="0" width="1792" height="893" viewBox="0, 0, 1792, 893">
  <defs>
    <linearGradient id="Gradient_1" gradientUnits="userSpaceOnUse" x1="-12.332" y1="306.007" x2="1397.291" y2="306.007">
      <stop offset="0" stop-color="#B8CEDF"/>
      <stop offset="1" stop-color="#F2FAFD"/>
    </linearGradient>
    <linearGradient id="Gradient_2" gradientUnits="userSpaceOnUse" x1="632.553" y1="687.659" x2="732.287" y2="307.92">
      <stop offset="0" stop-color="#859EB2"/>
      <stop offset="1" stop-color="#B7CFDF"/>
    </linearGradient>
    <pattern id="Pattern_3" patternUnits="userSpaceOnUse" x="246.237" y="469.287" width="48" height="48" patternTransform="matrix(0.29, 0.29, -0.29, 0.29, 0, 0)">
      <g transform="translate(0, -0)">
        <path d="M12,0 L16,0 L16,48 L12,48 L12,0 z" fill="#000000"/>
        <path d="M28,0 L32,0 L32,48 L28,48 L28,0 z" fill="#000000"/>
        <path d="M44,0 L48,0 L48,48 L44,48 L44,0 z" fill="#000000"/>
      </g>
    </pattern>
    <linearGradient id="Gradient_4" gradientUnits="userSpaceOnUse" x1="-4.604" y1="204.438" x2="1614.359" y2="204.438">
      <stop offset="0" stop-color="#E1EBF4"/>
      <stop offset="1" stop-color="#FFFFFF"/>
    </linearGradient>
    <pattern id="Pattern_5" patternUnits="userSpaceOnUse" x="1397.29" y="257.839" width="48" height="48" patternTransform="matrix(0.177, -0.177, 0.177, 0.177, 0, 0)">
      <g transform="translate(0, -0)">
        <path d="M14,0 L16,0 L16,48 L14,48 L14,0 z" fill="#000000"/>
        <path d="M30,0 L32,0 L32,48 L30,48 L30,0 z" fill="#000000"/>
        <path d="M46,0 L48,0 L48,48 L46,48 L46,0 z" fill="#000000"/>
        <path d="M0,16 L0,14 L48,14 L48,16 L0,16 z" fill="#000000"/>
        <path d="M0,32 L0,30 L48,30 L48,32 L0,32 z" fill="#000000"/>
        <path d="M0,48 L0,46 L48,46 L48,48 L0,48 z" fill="#000000"/>
      </g>
    </pattern>
    <linearGradient id="Gradient_6" gradientUnits="userSpaceOnUse" x1="1022.651" y1="841.701" x2="1022.651" y2="438.279">
      <stop offset="0" stop-color="#C40000"/>
      <stop offset="0.768" stop-color="#4F7A9C"/>
    </linearGradient>
    <linearGradient id="Gradient_7" gradientUnits="userSpaceOnUse" x1="739.054" y1="904.419" x2="1056.092" y2="569.805">
      <stop offset="0.009" stop-color="#79635C"/>
      <stop offset="0.991" stop-color="#86736E"/>
    </linearGradient>
    <pattern id="Pattern_8" patternUnits="userSpaceOnUse" x="391.191" y="133.635" width="48" height="48" patternTransform="matrix(0.495, -0.495, 0.495, 0.495, 0, 0)">
      <g transform="translate(0, -0)">
        <path d="M14,0 L16,0 L16,48 L14,48 L14,0 z" fill="#000000"/>
        <path d="M30,0 L32,0 L32,48 L30,48 L30,0 z" fill="#000000"/>
        <path d="M46,0 L48,0 L48,48 L46,48 L46,0 z" fill="#000000"/>
        <path d="M0,16 L0,14 L48,14 L48,16 L0,16 z" fill="#000000"/>
        <path d="M0,32 L0,30 L48,30 L48,32 L0,32 z" fill="#000000"/>
        <path d="M0,48 L0,46 L48,46 L48,48 L0,48 z" fill="#000000"/>
      </g>
    </pattern>
    <pattern id="Pattern_9" patternUnits="userSpaceOnUse" x="261.541" y="287.203" width="48" height="48" patternTransform="matrix(0.495, -0.495, 0.495, 0.495, 0, 0)">
      <g transform="translate(0, -0)">
        <path d="M14,0 L16,0 L16,48 L14,48 L14,0 z" fill="#000000"/>
        <path d="M30,0 L32,0 L32,48 L30,48 L30,0 z" fill="#000000"/>
        <path d="M46,0 L48,0 L48,48 L46,48 L46,0 z" fill="#000000"/>
        <path d="M0,16 L0,14 L48,14 L48,16 L0,16 z" fill="#000000"/>
        <path d="M0,32 L0,30 L48,30 L48,32 L0,32 z" fill="#000000"/>
        <path d="M0,48 L0,46 L48,46 L48,48 L0,48 z" fill="#000000"/>
      </g>
    </pattern>
    <linearGradient id="Gradient_10" gradientUnits="userSpaceOnUse" x1="1370.043" y1="135.027" x2="1333.988" y2="103.408" gradientTransform="matrix(1.057, 0.113, -1.119, 1.14, 0, 0)">
      <stop offset="0" stop-color="#55B6FF"/>
      <stop offset="1" stop-color="#2B49FF"/>
    </linearGradient>
    <linearGradient id="Gradient_11" gradientUnits="userSpaceOnUse" x1="1135.989" y1="160.053" x2="1100.56" y2="122.277" gradientTransform="matrix(1.057, 0.113, -1.119, 1.14, 0, 0)">
      <stop offset="0" stop-color="#55B6FF"/>
      <stop offset="1" stop-color="#2B49FF"/>
    </linearGradient>
    <linearGradient id="Gradient_12" gradientUnits="userSpaceOnUse" x1="1033.093" y1="209.54" x2="994.384" y2="177.92" gradientTransform="matrix(1.057, 0.113, -1.119, 1.14, 0, 0)">
      <stop offset="0" stop-color="#55B6FF"/>
      <stop offset="1" stop-color="#2B49FF"/>
    </linearGradient>
    <linearGradient id="Gradient_13" gradientUnits="userSpaceOnUse" x1="836.558" y1="129.96" x2="805.52" y2="98.341" gradientTransform="matrix(1.057, 0.113, -1.119, 1.14, 0, 0)">
      <stop offset="0" stop-color="#55B6FF"/>
      <stop offset="1" stop-color="#2B49FF"/>
    </linearGradient>
    <linearGradient id="Gradient_14" gradientUnits="userSpaceOnUse" x1="1505.051" y1="188.58" x2="1466.342" y2="156.961" gradientTransform="matrix(1.057, 0.113, -1.119, 1.14, 0, 0)">
      <stop offset="0" stop-color="#55B6FF"/>
      <stop offset="1" stop-color="#2B49FF"/>
    </linearGradient>
    <linearGradient id="Gradient_15" gradientUnits="userSpaceOnUse" x1="1281.842" y1="194.163" x2="1234.816" y2="167.823" gradientTransform="matrix(1.057, 0.113, -1.119, 1.14, 0, 0)">
      <stop offset="0" stop-color="#55B6FF"/>
      <stop offset="1" stop-color="#2B49FF"/>
    </linearGradient>
  </defs>
  <g id="Layer_2">
    <g opacity="0.6">
      <path d="M486.404,337.688 C486.404,337.688 520.589,200.445 520.589,200.445 C520.589,200.445 581.518,118.6 581.518,118.6 C581.518,118.6 645.908,207.721 645.908,207.721 C645.908,207.721 708.834,138.606 708.834,138.606 C708.834,138.606 747.029,174.982 747.029,174.982 C747.029,174.982 887.985,156.794 887.985,156.794 C887.985,156.794 940.73,80.405 940.73,79.496 C940.73,78.586 981.653,130.15 981.653,130.15 C981.653,130.15 1010.754,108.57 1011.663,108.57 C1012.573,108.57 1108.059,185.895 1108.969,185.895 C1109.878,185.895 1173.536,207.721 1173.536,207.721 C1173.536,207.721 1287.211,74.949 1287.211,74.949 C1287.211,74.949 1358.144,138.606 1358.144,138.606 C1358.144,138.606 1369.966,204.083 1369.966,204.083 C1369.966,204.083 1424.53,156.794 1424.53,156.794 C1424.53,156.794 1467.272,185.895 1467.272,185.895 C1467.272,185.895 1511.832,130.15 1511.832,130.15 C1511.832,130.15 1574.581,190.442 1574.581,190.442 C1574.581,190.442 1617.966,337.432 1617.966,337.432 C1617.966,337.432 486.404,337.688 486.404,337.688 C486.404,337.688 486.404,338.898 486.404,337.688 z" fill="#B6D2E0"/>
      <g>
        <path d="M1371.072,337.688 C1371.072,337.688 1486.412,155.33 1486.412,155.33 C1486.412,155.33 1617.965,337.432 1617.965,337.432 C1617.965,337.432 1371.072,336.837 1371.072,337.688 z" fill="#93AEC1"/>
        <path d="M1617.965,337.432 C1617.965,337.432 1498.785,337.688 1498.785,337.688 C1498.785,337.688 1483.319,302.79 1483.319,302.79 C1483.319,302.79 1502.34,280.17 1502.34,280.17 C1502.34,280.17 1488.714,259.49 1488.714,259.49 C1488.714,259.49 1502.34,236.225 1502.34,236.225 C1502.34,236.225 1488.714,216.19 1488.714,216.19 C1488.714,216.19 1499.488,195.51 1499.488,195.51 C1499.488,195.51 1488.714,178.061 1488.714,178.061 C1488.714,178.061 1486.412,155.33 1486.412,155.33 C1486.412,155.33 1617.965,337.432 1617.965,337.432 z" fill="#90A1B8"/>
        <path d="M1459.127,199.709 C1459.127,199.709 1486.413,155.33 1486.413,155.33 C1486.413,155.33 1522.411,203.898 1522.411,204.363 C1522.411,204.828 1502.34,195.055 1502.34,195.055 C1502.34,195.055 1485.453,209.483 1485.453,209.483 C1485.453,209.483 1473.302,196.451 1473.302,196.451 C1473.302,196.451 1459.127,199.244 1459.127,199.709 z" fill="#EAEAEA"/>
      </g>
      <g>
        <path d="M935.117,337.565 C935.117,337.565 1107.72,55.939 1107.72,55.939 C1107.72,55.939 1304.584,337.17 1304.584,337.17 C1304.584,337.17 935.117,336.251 935.117,337.565 z" fill="#93AEC1"/>
        <path d="M1304.584,337.17 C1304.584,337.17 1126.235,337.565 1126.235,337.565 C1126.235,337.565 1103.091,283.67 1103.091,283.67 C1103.091,283.67 1131.555,248.737 1131.555,248.737 C1131.555,248.737 1111.164,216.799 1111.164,216.799 C1111.164,216.799 1131.555,180.869 1131.555,180.869 C1131.555,180.869 1111.164,149.929 1111.164,149.929 C1111.164,149.929 1127.287,117.991 1127.287,117.991 C1127.287,117.991 1111.164,91.044 1111.164,91.044 C1111.164,91.044 1107.72,55.939 1107.72,55.939 C1107.72,55.939 1304.584,337.17 1304.584,337.17 z" fill="#90A1B8"/>
        <path d="M1066.888,124.476 C1066.888,124.476 1107.72,55.939 1107.72,55.939 C1107.72,55.939 1161.59,130.945 1161.59,131.664 C1161.59,132.382 1131.555,117.288 1131.555,117.288 C1131.555,117.288 1106.284,139.57 1106.284,139.57 C1106.284,139.57 1088.101,119.445 1088.101,119.445 C1088.101,119.445 1066.888,123.757 1066.888,124.476 z" fill="#EAEAEA"/>
      </g>
      <g>
        <path d="M1245.356,337.565 C1245.356,337.565 1357.649,121.532 1357.649,121.532 C1357.649,121.532 1485.725,337.262 1485.725,337.262 C1485.725,337.262 1245.356,336.557 1245.356,337.565 z" fill="#7992AE"/>
        <path d="M1485.725,337.262 C1485.725,337.262 1369.695,337.565 1369.695,337.565 C1369.695,337.565 1354.637,296.222 1354.637,296.222 C1354.637,296.222 1373.155,269.426 1373.155,269.426 C1373.155,269.426 1359.889,244.927 1359.889,244.927 C1359.889,244.927 1373.155,217.365 1373.155,217.365 C1373.155,217.365 1359.889,193.631 1359.889,193.631 C1359.889,193.631 1370.379,169.132 1370.379,169.132 C1370.379,169.132 1359.889,148.461 1359.889,148.461 C1359.889,148.461 1357.649,121.532 1357.649,121.532 C1357.649,121.532 1485.725,337.262 1485.725,337.262 z" fill="#7888A4"/>
        <path d="M1331.084,174.106 C1331.084,174.106 1357.649,121.532 1357.649,121.532 C1357.649,121.532 1392.696,179.068 1392.696,179.62 C1392.696,180.171 1373.155,168.593 1373.155,168.593 C1373.155,168.593 1356.714,185.685 1356.714,185.685 C1356.714,185.685 1344.885,170.247 1344.885,170.247 C1344.885,170.247 1331.084,173.555 1331.084,174.106 z" fill="#EAEAEA"/>
      </g>
      <g>
        <path d="M486.404,337.688 C486.404,337.688 633.516,95.23 633.516,95.23 C633.516,95.23 801.308,337.348 801.308,337.348 C801.308,337.348 486.404,336.556 486.404,337.688 z" fill="#93AEC1"/>
        <path d="M801.308,337.348 C801.308,337.348 649.298,337.688 649.298,337.688 C649.298,337.688 629.571,291.288 629.571,291.288 C629.571,291.288 653.831,261.214 653.831,261.214 C653.831,261.214 636.452,233.718 636.452,233.718 C636.452,233.718 653.831,202.785 653.831,202.785 C653.831,202.785 636.452,176.148 636.452,176.148 C636.452,176.148 650.194,148.652 650.194,148.652 C650.194,148.652 636.452,125.452 636.452,125.452 C636.452,125.452 633.516,95.23 633.516,95.23 C633.516,95.23 801.308,337.348 801.308,337.348 z" fill="#90A1B8"/>
        <path d="M598.715,154.235 C598.715,154.235 633.517,95.23 633.517,95.23 C633.517,95.23 679.431,159.804 679.431,160.423 C679.431,161.041 653.832,148.047 653.832,148.047 C653.832,148.047 632.293,167.229 632.293,167.229 C632.293,167.229 616.795,149.903 616.795,149.903 C616.795,149.903 598.715,153.616 598.715,154.235 z" fill="#EAEAEA"/>
      </g>
      <g>
        <path d="M626.024,337.565 C626.024,337.565 819.582,4.676 819.582,4.676 C819.582,4.676 1040.347,337.098 1040.347,337.098 C1040.347,337.098 626.024,336.012 626.024,337.565 z" fill="#7992AE"/>
        <path d="M1040.347,337.098 C1040.347,337.098 840.346,337.565 840.346,337.565 C840.346,337.565 814.392,273.859 814.392,273.859 C814.392,273.859 846.311,232.569 846.311,232.569 C846.311,232.569 823.444,194.817 823.444,194.817 C823.444,194.817 846.311,152.347 846.311,152.347 C846.311,152.347 823.444,115.775 823.444,115.775 C823.444,115.775 841.526,78.023 841.526,78.023 C841.526,78.023 823.444,46.17 823.444,46.17 C823.444,46.17 819.582,4.676 819.582,4.676 C819.582,4.676 1040.347,337.098 1040.347,337.098 z" fill="#7888A4"/>
        <path d="M773.793,85.688 C773.793,85.688 819.583,4.676 819.583,4.676 C819.583,4.676 879.993,93.335 879.993,94.184 C879.993,95.034 846.311,77.192 846.311,77.192 C846.311,77.192 817.972,103.53 817.972,103.53 C817.972,103.53 797.582,79.741 797.582,79.741 C797.582,79.741 773.793,84.839 773.793,85.688 z" fill="#EAEAEA"/>
      </g>
    </g>
  </g>
  <g id="Layer_1">
    <path d="M1397.291,399.886 C1397.291,399.886 435.85,349.505 330.952,329.539 C226.054,309.574 88.669,186.838 55.654,164.789 C22.639,142.74 -4.604,142.727 -4.604,142.727 C-4.604,142.727 -12.332,332.98 -12.332,332.98 C-12.332,332.98 445.095,469.287 445.095,469.287 C445.095,469.287 1175.825,459.387 1175.825,459.387 C1175.825,459.387 1397.291,450.267 1397.291,450.267 C1397.291,450.267 1397.291,399.886 1397.291,399.886" fill="url(#Gradient_1)"/>
    <path d="M246.237,688.123 C473.717,493.151 1397.291,491.57 1397.291,491.57 C1397.291,491.57 1397.291,438.279 1397.291,438.279 C1397.291,438.279 633.012,444.41 435.597,430.004 C238.182,415.599 -32.451,307.456 -32.451,307.456 C-32.451,307.456 -28.703,559.627 -28.703,559.627 C-28.703,559.627 16.389,632.481 246.237,688.123 z" fill="url(#Gradient_2)"/>
    <path d="M1397.291,491.57 C1397.291,491.57 474.087,489.735 246.237,688.123 C568.605,371.669 1395.661,491.57 1395.661,491.57" fill="url(#Pattern_3)"/>
    <path d="M1397.291,399.886 L1397.291,438.279 L1614.359,290.06 L1614.358,257.839 C1614.358,257.839 1588.131,269.545 1588.131,269.545 C1588.131,269.545 1554.956,303.757 1554.956,303.757 C1554.956,303.757 1519.162,308.292 1519.162,308.292 C1519.162,308.292 1498.209,336.712 1498.209,336.712 C1498.209,336.712 1458.049,352.892 1458.049,352.892 C1458.049,352.892 1441.462,386.933 1441.462,386.933 C1441.462,386.933 1397.291,399.885 1397.291,399.885" fill="#AAC3D7"/>
    <path d="M1397.292,399.885 C1397.292,399.885 1441.463,386.933 1441.463,386.933 C1441.463,386.933 1458.05,352.892 1458.05,352.892 C1458.05,352.892 1498.21,336.712 1498.21,336.712 C1498.21,336.712 1519.163,308.292 1519.163,308.292 C1519.163,308.292 1554.957,303.756 1554.957,303.756 C1554.957,303.756 1588.132,269.545 1588.132,269.545 C1588.132,269.545 1614.359,257.839 1614.359,257.839 C1614.359,257.839 584.317,149.924 531.119,142.727 C475.553,135.208 375.006,121.292 331.833,100.78 C276.502,74.491 216.062,25.068 195.716,8.99 C195.716,8.99 -4.604,142.727 -4.604,142.727 C-4.604,142.727 49.457,175.977 49.457,175.977 C49.457,175.977 133.13,237.629 133.13,237.629 C133.13,237.629 215.748,295.444 215.748,295.444 C215.748,295.444 322.214,344.476 401.303,345.522 C489.518,350.529 891.049,382.817 891.049,382.817 C891.049,382.817 1397.292,399.885 1397.292,399.885" fill="url(#Gradient_4)"/>
    <g>
      <path d="M1340.122,400.385 C1340.122,400.385 1319.177,420.303 1319.177,420.303 C1319.177,420.303 1357.987,438.758 1357.987,438.758 C1357.987,438.758 1340.306,459.775 1337.42,459.775 C1334.534,459.775 1363.771,480.72 1363.771,480.72 C1363.771,480.72 1348.906,492.07 1348.906,492.07 C1348.906,492.07 1365.463,480.574 1365.463,480.574 C1365.463,480.574 1339.35,459.916 1342.236,459.888 C1345.122,459.86 1365.937,438.668 1365.937,438.668 C1365.937,438.668 1329.879,420.596 1329.879,420.596 C1329.879,420.596 1353.795,400.472 1353.795,400.472" fill="#4B9BFF"/>
      <path d="M1340.122,400.385 C1340.122,400.385 1319.177,420.303 1319.177,420.303 C1319.177,420.303 1357.987,438.758 1357.987,438.758 C1357.987,438.758 1340.306,459.775 1337.42,459.775 C1334.534,459.775 1363.771,480.72 1363.771,480.72 C1363.771,480.72 1348.906,492.07 1348.906,492.07 C1348.906,492.07 1365.463,480.574 1365.463,480.574 C1365.463,480.574 1339.35,459.916 1342.236,459.888 C1345.122,459.86 1365.937,438.668 1365.937,438.668 C1365.937,438.668 1329.879,420.596 1329.879,420.596 C1329.879,420.596 1353.795,400.472 1353.795,400.472" fill-opacity="0" stroke="#000000" stroke-width="0.2"/>
    </g>
    <g>
      <path d="M1109.987,387.987 C1109.987,387.987 1130.932,408.659 1130.932,408.659 C1130.932,408.659 1092.123,427.812 1092.123,427.812 C1092.123,427.812 1109.803,449.626 1112.689,449.626 C1115.575,449.626 1086.339,471.365 1086.339,471.365 C1086.339,471.365 1101.203,483.144 1101.203,483.144 C1101.203,483.144 1083.818,471.452 1083.818,471.452 C1083.818,471.452 1108.404,449.541 1105.518,449.558 C1102.632,449.575 1080.284,427.866 1080.284,427.866 C1080.284,427.866 1114.996,408.484 1114.996,408.484 C1114.996,408.484 1089.628,387.935 1089.628,387.935" fill="#4489FF"/>
      <path d="M1109.987,387.987 C1109.987,387.987 1130.932,408.659 1130.932,408.659 C1130.932,408.659 1092.123,427.812 1092.123,427.812 C1092.123,427.812 1109.803,449.626 1112.689,449.626 C1115.575,449.626 1086.339,471.365 1086.339,471.365 C1086.339,471.365 1101.203,483.144 1101.203,483.144 C1101.203,483.144 1083.818,471.452 1083.818,471.452 C1083.818,471.452 1108.404,449.541 1105.518,449.558 C1102.632,449.575 1080.284,427.866 1080.284,427.866 C1080.284,427.866 1114.996,408.484 1114.996,408.484 C1114.996,408.484 1089.628,387.935 1089.628,387.935" fill-opacity="0" stroke="#000000" stroke-width="0.25"/>
    </g>
    <g>
      <path d="M831.956,379.652 C831.956,379.652 811.01,397.73 811.01,397.73 C811.01,397.73 841.173,416.718 841.173,416.718 C841.173,416.718 817.847,436.54 814.961,436.54 C812.075,436.54 854.559,451.171 854.559,451.171 C854.559,451.171 840.739,462.87 840.739,462.87 C840.739,462.87 857.374,450.954 857.374,450.954 C857.374,450.954 818.412,436.99 821.298,436.944 C824.184,436.899 852.281,416.711 852.281,416.711 C852.281,416.711 826.688,398.196 826.688,398.196 C826.688,398.196 851.984,379.789 851.984,379.789" fill="#4EA4FF"/>
      <path d="M831.956,379.652 C831.956,379.652 811.01,397.73 811.01,397.73 C811.01,397.73 841.173,416.718 841.173,416.718 C841.173,416.718 817.847,436.54 814.961,436.54 C812.075,436.54 854.559,451.171 854.559,451.171 C854.559,451.171 840.739,462.87 840.739,462.87 C840.739,462.87 857.374,450.954 857.374,450.954 C857.374,450.954 818.412,436.99 821.298,436.944 C824.184,436.899 852.281,416.711 852.281,416.711 C852.281,416.711 826.688,398.196 826.688,398.196 C826.688,398.196 851.984,379.789 851.984,379.789" fill-opacity="0" stroke="#000000" stroke-width="0.25"/>
    </g>
    <path d="M1614.358,336.712 L1614.358,290.06 L1397.291,438.279 L1397.291,491.57 C1397.291,491.57 1444.081,457.212 1444.081,457.212 C1444.081,457.212 1496.463,442.093 1496.463,442.093 C1496.463,442.093 1514.796,411.855 1515.669,411.855 C1516.542,411.855 1546.225,405.052 1546.225,405.052 C1546.225,405.052 1567.178,377.838 1567.178,377.838 C1567.178,377.838 1600.354,358.184 1600.354,358.184 C1600.354,358.184 1614.358,336.712 1614.358,336.712" fill="#BEC5CF"/>
    <path d="M1397.291,438.279 C1614.359,290.06 1614.359,290.06 1614.359,290.06 C1614.359,290.06 1796.216,290.06 1796.216,290.06 C1796.216,290.06 1796.698,438.279 1796.698,438.279" fill="#99BDCF" opacity="0.66"/>
    <path d="M1397.29,399.886 L1397.291,438.279 L1614.358,290.06 L1614.358,257.839 C1614.358,257.839 1588.131,269.545 1588.131,269.545 C1588.131,269.545 1554.956,303.757 1554.956,303.757 C1554.956,303.757 1519.161,308.292 1519.161,308.292 C1519.161,308.292 1498.209,336.712 1498.209,336.712 C1498.209,336.712 1458.049,352.892 1458.049,352.892 C1458.049,352.892 1441.462,386.933 1441.462,386.933 C1441.462,386.933 1397.291,399.885 1397.291,399.885" fill="url(#Pattern_5)"/>
    <path d="M1804.934,438.279 C1804.934,438.279 1397.291,438.279 1397.291,438.279 C1397.291,438.279 1397.291,491.57 1397.291,491.57 C1397.291,491.57 477.102,491.57 246.237,688.123 C157.36,763.791 618.016,834.202 618.016,834.202 C618.016,834.202 1810.451,841.701 1810.451,841.701 C1810.451,841.701 1804.934,438.279 1804.934,438.279 z" fill="url(#Gradient_6)" opacity="0.3"/>
    <path d="M1731.9,739.69 C1714.808,739.378 1668.368,734.722 1646.151,730.877 C1623.933,727.032 1573.053,704.678 1553.634,697.096 C1534.215,689.514 1499.643,674.045 1475.962,665.797 C1452.281,657.55 1413.8,641.644 1388.343,634.575 C1362.886,627.505 1308.239,621.224 1276.322,621.223 C1244.406,621.223 1195.51,623.681 1161.008,627.505 C1126.506,631.33 1105.774,634.805 1047.732,670.659 C989.69,706.512 974.406,733.395 916.371,757.315 C869.066,776.812 741.472,796.664 665.913,795.913 C590.353,795.163 430.494,750.982 385.455,738.916 C340.417,726.85 152.216,648.638 108.494,622.227 C108.494,622.227 -9.401,567.224 -9.401,567.224 C-9.401,567.224 -15.305,907 -15.305,907 C-15.305,907 1810.451,901.63 1810.451,901.63 C1810.451,901.63 1810.451,740.483 1810.451,740.483" fill="url(#Gradient_7)"/>
    <path d="M1417.675,366.409" fill-opacity="0" stroke="#000000" stroke-width="1"/>
    <path d="M1397.791,350.362 C1397.791,350.362 1394.501,333.673 1394.501,333.673 C1394.501,333.673 1417.675,328.109 1417.675,328.109 C1417.675,328.109 1411.972,316.551 1411.972,316.551 C1411.972,316.551 1427.347,303.77 1427.347,303.77 C1427.347,303.77 1417.675,295.944 1417.675,295.944 C1417.675,295.944 1428.744,286.708 1428.744,286.708 C1428.744,286.708 1423.154,277.345 1423.154,277.345" fill-opacity="0" stroke="#808080" stroke-width="2"/>
    <path d="M1280.625,363.418 C1280.625,363.418 1273.139,343.722 1273.139,343.722 C1273.139,343.722 1293.351,337.482 1293.351,337.482 C1293.351,337.482 1290.356,323.596 1290.356,323.596 C1290.356,323.596 1307.573,316.551 1307.573,316.551 C1307.573,316.551 1306.825,307.956 1306.825,307.956 C1306.825,307.956 1326.287,300.518 1326.287,300.518 C1326.287,300.518 1319.177,286.708 1319.177,286.708 C1319.177,286.708 1347.247,268.489 1347.247,268.489" fill-opacity="0" stroke="#808080" stroke-width="2"/>
    <path d="M1433.354,372.419 C1433.354,372.419 1433.353,350.362 1433.353,350.362 C1433.353,350.362 1446,344.137 1446,344.137 C1446,344.137 1446,323.596 1446,323.596 C1446,323.596 1467.176,316.551 1467.176,316.551 C1467.176,316.551 1461.891,302.067 1461.891,302.067" fill-opacity="0" stroke="#808080" stroke-width="2"/>
    <path d="M1052.853,349.633 C1052.853,349.633 1052.853,318.575 1052.853,318.575 C1052.853,318.575 1067.546,318.575 1067.546,318.575 C1067.546,318.575 1067.546,297.046 1067.546,297.046 C1067.546,297.046 1084.121,290.923 1084.121,290.923 C1084.121,290.923 1084.121,272.323 1084.121,272.323" fill-opacity="0" stroke="#808080" stroke-width="2"/>
    <path d="M477.878,136.488 C390.146,131.032 350.849,129.213 447.72,171.044 C571.094,192.869 1520.049,292.45 1560.919,295.444 C1575.825,277.77 1585.324,268.576 1614.358,257.839 C1531.84,249.458 613.132,153.766 477.878,136.488 z" fill="url(#Pattern_8)"/>
    <path d="M363.689,296.029 C307.296,287.347 177.857,270.243 341.147,333.403 C473.184,348.701 1262.244,393.949 1399.671,400.924 C1442.544,388.381 1445.5,390.049 1445.5,369.14 C1318.778,344.566 451.52,317.162 363.689,296.029 z" fill="url(#Pattern_9)"/>
    <path d="M1257.147,315.916 C1240.373,314.42 1279.221,302.837 1282.484,281.104 C1285.755,259.312 1305.262,259.395 1322.036,260.89 C1338.81,262.386 1337.882,275.916 1319.963,291.111 C1302.045,306.306 1273.921,317.412 1257.147,315.916 z" fill="url(#Gradient_10)"/>
    <path d="M1009.187,323.044 C992.413,321.548 1003.139,293.002 1013.118,273.399 C1023.509,252.987 1041.463,252.755 1058.237,254.25 C1075.011,255.746 1065.755,263.335 1047.837,278.53 C1029.918,293.725 1025.961,324.539 1009.187,323.044 z" fill="url(#Gradient_11)"/>
    <path d="M818.204,362.783 C801.43,361.288 822.613,349.839 832.591,330.236 C842.982,309.823 866.32,306.262 883.094,307.757 C899.867,309.253 898.939,322.783 881.021,337.978 C863.102,353.173 834.978,364.279 818.204,362.783 z" fill="url(#Gradient_12)"/>
    <path d="M708.95,250.795 C692.176,249.3 713.359,237.851 723.338,218.248 C733.729,197.835 757.066,194.274 773.84,195.77 C790.614,197.265 776.744,210.913 758.825,226.108 C740.906,241.303 725.724,252.291 708.95,250.795 z" fill="url(#Gradient_13)"/>
    <path d="M1340.288,392.308 C1323.514,390.813 1344.697,379.364 1354.676,359.761 C1365.067,339.348 1388.404,335.787 1405.178,337.283 C1421.952,338.778 1421.023,352.308 1403.105,367.503 C1385.186,382.698 1357.062,393.804 1340.288,392.308 z" fill="url(#Gradient_14)"/>
    <path d="M1089.875,370.665 C1073.101,369.169 1094.284,357.72 1104.262,338.117 C1114.654,317.705 1127.04,323.511 1143.814,325.007 C1160.588,326.502 1169.594,344.678 1151.675,359.873 C1133.756,375.068 1106.649,372.16 1089.875,370.665 z" fill="url(#Gradient_15)"/>
    <g>
      <path d="M211.459,9.49 C358.156,139.595 383.188,110.391 625.6,140.557" fill-opacity="0" stroke="#91A9BD" stroke-width="6"/>
      <path d="M624.837,146.508 L641.47,142.592 L626.364,134.606 z" fill="#91A9BD" fill-opacity="1" stroke="#91A9BD" stroke-width="6" stroke-opacity="1"/>
    </g>
    <text transform="matrix(1, 0, 0, 1, 466.563, 91.289)">
      <tspan x="-40.014" y="8" font-family="Helvetica" font-size="24" fill="#91A9BD">ice flow</tspan>
    </text>
    <g>
      <path d="M338.814,230.023 C265.827,222.662 186.612,157.732 154.068,128.287" fill-opacity="0" stroke="#91A9BD" stroke-width="6"/>
      <path d="M158.186,123.924 L142.433,117.303 L149.949,132.65 z" fill="#91A9BD" fill-opacity="1" stroke="#91A9BD" stroke-width="6" stroke-opacity="1"/>
    </g>
    <text transform="matrix(1, 0, 0, 1, 283.594, 161.029)">
      <tspan x="-58.699" y="4.698" font-family="Helvetica" font-size="24" fill="#91A9BD">buttressing</tspan>
    </text>
    <g>
      <path d="M1385.063,333.68 C1386.046,304.303 1373.406,292.021 1360.684,287.967" fill-opacity="0" stroke="#CA6E30" stroke-width="3" stroke-dasharray="9,6"/>
      <path d="M1361.172,283.796 L1349.56,286.666 L1360.196,292.139 z" fill="#CA6E30" fill-opacity="1" stroke="#CA6E30" stroke-width="3" stroke-opacity="1"/>
    </g>
    <g>
      <path d="M1121.936,312.592 C1122.919,283.214 1110.279,270.933 1097.557,266.879" fill-opacity="0" stroke="#CA6E30" stroke-width="3" stroke-dasharray="9,6"/>
      <path d="M1098.045,262.708 L1086.433,265.578 L1097.069,271.051 z" fill="#CA6E30" fill-opacity="1" stroke="#CA6E30" stroke-width="3" stroke-opacity="1"/>
    </g>
    <g>
      <path d="M1250.273,295.944 C1217.587,294.85 1195.246,303.469 1178.636,315.132" fill-opacity="0" stroke="#CA6E30" stroke-width="3" stroke-dasharray="9,6"/>
      <path d="M1176.019,311.847 L1169.876,322.111 L1181.253,318.417 z" fill="#CA6E30" fill-opacity="1" stroke="#CA6E30" stroke-width="3" stroke-opacity="1"/>
    </g>
    <g>
      <path d="M838.33,305.925 C831.634,273.502 804.913,247.248 786.219,235.825" fill-opacity="0" stroke="#CA6E30" stroke-width="3" stroke-dasharray="9,6"/>
      <path d="M787.987,232.016 L776.06,231.109 L784.45,239.635 z" fill="#CA6E30" fill-opacity="1" stroke="#CA6E30" stroke-width="3" stroke-opacity="1"/>
    </g>
    <g>
      <path d="M992.861,305.229 C960.44,304.144 938.07,310.954 920.664,319.977" fill-opacity="0" stroke="#CA6E30" stroke-width="3" stroke-dasharray="9,6"/>
      <path d="M918.559,316.343 L910.972,325.59 L922.769,323.612 z" fill="#CA6E30" fill-opacity="1" stroke="#CA6E30" stroke-width="3" stroke-opacity="1"/>
    </g>
    <g>
      <path d="M358.728,305.567 L755.373,327.29 L753.711,357.651 L357.065,335.928 L358.728,305.567 z" fill="#FFFFFF" opacity="0.75"/>
      <text transform="matrix(0.998, 0.055, -0.055, 0.998, 556.605, 346.955)">
        <tspan x="-192.123" y="-6.5" font-family="Helvetica" font-size="24" fill="#6A6A6A">enhanced damage to shear margins</tspan>
      </text>
    </g>
    <g opacity="0.7">
      <path d="M1603.166,696.854 C1473.747,596.999 1111.885,555.451 997.714,681.691" fill-opacity="0" stroke="#C02A1D" stroke-width="6"/>
      <path d="M992.978,678.008 L987.892,694.321 L1002.451,685.375 z" fill="#C02A1D" fill-opacity="1" stroke="#C02A1D" stroke-width="6" stroke-opacity="1"/>
    </g>
    <text transform="matrix(1, 0, 0, 1, 1611.572, 609.354)" opacity="0.7">
      <tspan x="-124.705" y="8" font-family="Helvetica" font-size="24" fill="#C02A1D">increased CDW access</tspan>
    </text>
    <g opacity="0.7">
      <path d="M526.631,746.759 C457.197,741.418 444.788,643.101 508.969,627.025" fill-opacity="0" stroke="#C02A1D" stroke-width="4"/>
      <path d="M509.606,631.783 L521.656,625.327 L508.333,622.268 z" fill="#C02A1D" fill-opacity="1" stroke="#C02A1D" stroke-width="4" stroke-opacity="1"/>
    </g>
    <g opacity="0.7">
      <path d="M553.31,624.854 C622.744,630.195 635.153,728.512 570.971,744.588" fill-opacity="0" stroke="#C02A1D" stroke-width="4"/>
      <path d="M570.335,739.83 L558.284,746.286 L571.608,749.345 z" fill="#C02A1D" fill-opacity="1" stroke="#C02A1D" stroke-width="4" stroke-opacity="1"/>
    </g>
    <text transform="matrix(1, 0, 0, 1, 707.594, 737.112)" opacity="0.7">
      <tspan x="-102.727" y="8" font-family="Helvetica" font-size="24" fill="#EE0000">circulation changes</tspan>
    </text>
    <g>
      <path d="M582.889,523.208 L791.203,491.57 L795.708,521.23 L587.393,552.867 L582.889,523.208 z" fill="#FFFFFF" opacity="0.5"/>
      <text transform="matrix(0.989, -0.15, 0.15, 0.989, 689.298, 522.219)" opacity="0.7">
        <tspan x="-94.734" y="8" font-family="Helvetica" font-size="24" fill="#EE0000">enhanced melting</tspan>
      </text>
    </g>
    <path d="M466.563,1144.555 L466.563,1144.555 L466.563,1145.499 L466.563,1145.499 L466.563,1144.555 z" fill="#EE0000"/>
    <text transform="matrix(1, 0, 0, 1, 916.989, 260.945)">
      <tspan x="-32.004" y="-6.453" font-family="Helvetica" font-size="24" fill="#CA6E30">stress </tspan>
      <tspan x="-68.701" y="22.547" font-family="Helvetica" font-size="24" fill="#CA6E30">redistribution</tspan>
    </text>
    <text transform="matrix(1, 0, 0, 1, 924.056, 409.935)">
      <tspan x="-54.035" y="-6.5" font-family="Helvetica" font-size="24" fill="#CA6E30">cascading </tspan>
      <tspan x="-70.699" y="22.5" font-family="Helvetica" font-size="24" fill="#CA6E30">hydrofracture</tspan>
    </text>
    <g>
      <g>
        <path d="M488.729,271.45 L557.032,275.325" fill-opacity="0" stroke="#807F80" stroke-width="2"/>
        <path d="M556.828,278.92 L566.616,275.869 L557.235,271.731 z" fill="#807F80" fill-opacity="1" stroke="#807F80" stroke-width="2" stroke-opacity="1"/>
      </g>
      <g>
        <path d="M487.816,287.535 L536.596,290.302" fill-opacity="0" stroke="#807F80" stroke-width="2"/>
        <path d="M536.392,293.896 L546.181,290.846 L536.8,286.708 z" fill="#807F80" fill-opacity="1" stroke="#807F80" stroke-width="2" stroke-opacity="1"/>
      </g>
      <g>
        <path d="M486.904,303.619 L515.762,305.256" fill-opacity="0" stroke="#807F80" stroke-width="2"/>
        <path d="M515.558,308.851 L525.347,305.8 L515.966,301.662 z" fill="#807F80" fill-opacity="1" stroke="#807F80" stroke-width="2" stroke-opacity="1"/>
      </g>
    </g>
    <text transform="matrix(0.998, 0.06, -0.06, 0.998, 396.706, 281.598)">
      <tspan x="-83.379" y="8" font-family="Helvetica" font-size="24" fill="#6A6A6A">ice acceleration</tspan>
    </text>
    <path d="M620.363,290.898 C620.363,290.898 612.878,271.202 612.878,271.202 C612.878,271.202 633.089,264.962 633.089,264.962 C633.089,264.962 630.094,251.076 630.094,251.076 C630.094,251.076 647.311,244.031 647.311,244.031 C647.311,244.031 646.563,235.436 646.563,235.436 C646.563,235.436 666.026,227.998 666.026,227.998 C666.026,227.998 658.915,214.188 658.915,214.188 C658.915,214.188 686.986,195.969 686.986,195.969" fill-opacity="0" stroke="#808080" stroke-width="2"/>
    <text transform="matrix(0.998, 0.06, -0.06, 0.998, 582.594, 216.488)">
      <tspan x="-48.018" y="-6.5" font-family="Helvetica" font-size="24" fill="#808080">crevasse</tspan>
      <tspan x="-50.021" y="22.5" font-family="Helvetica" font-size="24" fill="#808080">formation</tspan>
    </text>
  </g>
  <g id="Layer_3"/>
</svg>
